<?xml version="1.0" encoding="utf-8"?>
<!-- Generator: Adobe Illustrator 23.0.1, SVG Export Plug-In . SVG Version: 6.00 Build 0)  -->
<svg version="1.1" id="Layer_1" xmlns="http://www.w3.org/2000/svg" xmlns:xlink="http://www.w3.org/1999/xlink" x="0px" y="0px"
	 viewBox="0 0 945 945" style="enable-background:new 0 0 945 945;" xml:space="preserve">
<style type="text/css">
	.st0{display:none;}
	.st1{display:inline;fill:#072F6A;}
	.st2{display:inline;fill:#0B3D87;}
	.st3{display:inline;fill:#1351AC;}
	.st4{display:inline;fill:#3568B3;}
	.st5{display:inline;fill:#5883C3;}
	.st6{display:inline;fill:#153862;}
	.st7{display:inline;fill:#42648D;}
	.st8{display:inline;fill:#274C79;}
	.st9{display:inline;fill:#204A6F;}
	.st10{display:inline;fill:#2779C3;}
	.st11{display:inline;fill:#226098;}
	.st12{fill:#072F6A;}
	.st13{fill:#0B3D87;}
	.st14{fill:#1351AC;}
	.st15{display:none;enable-background:new    ;}
	.st16{font-family:'MyriadPro-Regular';}
	.st17{font-size:290.2633px;}
	.st18{display:inline;}
</style>
<g id="lytix_blue_3" class="st0">
	<path class="st1" d="M1243.8-1362.8c-0.2-0.1-0.4-0.2-0.6-0.4c-44.6-23.8-82.8-27.4-114.6-10.6c-37.8,15.6-56.8,48.7-56.8,99.2v139
		c23.1,26,45.1,24.1,65.8-5.6v-139c0-16.4,4.8-27.8,14.3-34c15.2-5.3,33.9-2.1,56.1,9.8c0.2,0,0.4,0.1,0.5,0.2
		c29.3,15.8,54.3,39.7,75.1,71.5c19.9,30.5,30,59.7,30.5,87.7v138.9c23.1,24.4,45,22.5,65.8-5.5v-139c0.5-38.9-13-79.4-40.3-121.5
		C1313.2-1312.6,1281.2-1342.9,1243.8-1362.8z"/>
	<polygon class="st2" points="1316.1,-602.5 1316.1,-444 1492.3,-550.1 1528.2,-571.7 1528.2,-731.4 1492.3,-709.7 	"/>
	<polygon class="st3" points="1015.7,-976.2 1015.7,-1062 877.5,-1142.8 877.5,-976.2 877.5,-678 1316.1,-443.7 1316.1,-444 
		1316.1,-602.5 1015.7,-757.5 	"/>
	
		<text transform="matrix(0.795 -0.4824 -2.652317e-02 0.9996 1335.0674 -677.8972)" class="st2" style="font-family:'JKAbode-Demo'; font-size:295.455px;">ix</text>
	
		<text transform="matrix(1.0674 0.6012 -1.001600e-02 0.9999 1037.9331 -830.5181)" class="st3" style="font-family:'JKAbode-Demo'; font-size:261.5922px; letter-spacing:24.5;">yt</text>
</g>
<g id="lytic_colored_3" class="st0">
	<path class="st3" d="M2022.6-1376.2c-0.2-0.1-0.4-0.2-0.6-0.4c-44.6-23.8-82.8-27.4-114.7-10.6c-37.8,15.6-56.8,48.7-56.8,99.2v139
		c23.1,26,45.1,24.1,65.8-5.6v-139c0-16.4,4.8-27.8,14.3-34c15.2-5.3,33.9-2.1,56.1,9.8c0.2,0,0.4,0.1,0.5,0.2
		c29.3,15.8,54.3,39.7,75.1,71.5c19.9,30.5,30.1,59.7,30.6,87.7v139c23.1,24.4,45,22.5,65.8-5.5v-139c0.5-38.9-12.9-79.4-40.4-121.5
		C2092.1-1326,2060.1-1356.3,2022.6-1376.2z"/>
	<polygon class="st4" points="2094.9,-615.9 2094.9,-457.4 2271.2,-563.5 2307.1,-585.1 2307.1,-744.8 2271.2,-723.1 	"/>
	<polygon class="st5" points="1794.6,-989.6 1794.6,-1075.4 1656.2,-1156.2 1656.2,-989.6 1656.2,-691.4 2094.9,-457.1 
		2094.9,-457.4 2094.9,-615.9 1794.6,-770.9 	"/>
	
		<text transform="matrix(0.795 -0.4824 -2.652317e-02 0.9996 2113.8816 -691.2481)" class="st4" style="font-family:'JKAbode-Demo'; font-size:295.455px;">ix</text>
	
		<text transform="matrix(1.0674 0.6012 -1.001600e-02 0.9999 1816.7476 -843.8676)" class="st5" style="font-family:'JKAbode-Demo'; font-size:261.5922px; letter-spacing:24.5;">yt</text>
</g>
<g id="lytix_colored_4" class="st0">
	<path class="st6" d="M2845.9-1376.2c-0.2-0.1-0.4-0.2-0.6-0.4c-44.6-23.8-82.8-27.4-114.7-10.6c-37.8,15.6-56.8,48.7-56.8,99.2v139
		c23.1,26,45.1,24.1,65.8-5.6v-139c0-16.4,4.8-27.8,14.3-34c15.2-5.3,33.9-2.1,56.1,9.8c0.2,0,0.4,0.1,0.5,0.2
		c29.3,15.8,54.3,39.7,75.1,71.5c19.9,30.5,30.1,59.7,30.6,87.7v138.9c23.1,24.4,45,22.5,65.8-5.5v-139
		c0.5-38.9-12.9-79.4-40.4-121.5C2915.2-1326,2883.4-1356.3,2845.9-1376.2z"/>
	<polygon class="st7" points="2918.1,-616 2918.1,-457.4 3094.4,-563.6 3130.2,-585.1 3130.2,-744.8 3094.4,-723.1 	"/>
	<polygon class="st8" points="2617.8,-989.6 2617.8,-1075.4 2479.6,-1156.3 2479.6,-989.6 2479.6,-691.4 2918.1,-457.1 
		2918.1,-457.4 2918.1,-616 2617.8,-770.9 	"/>
	
		<text transform="matrix(0.795 -0.4824 -2.652317e-02 0.9996 2937.053 -691.2678)" class="st7" style="font-family:'JKAbode-Demo'; font-size:295.455px;">ix</text>
	
		<text transform="matrix(1.0674 0.6012 -1.001600e-02 0.9999 2639.9204 -843.8896)" class="st8" style="font-family:'JKAbode-Demo'; font-size:261.5922px; letter-spacing:24.5;">yt</text>
</g>
<g id="lytix_colored_5" class="st0">
	<path class="st9" d="M384.2-1417.4c-0.2-0.1-0.4-0.2-0.6-0.4c-44.6-23.8-82.8-27.4-114.7-10.6c-37.8,15.6-56.8,48.7-56.8,99.2v139
		c23.1,26,45.1,24.1,65.8-5.6v-139c0-16.4,4.8-27.8,14.3-34.1c15.2-5.3,33.9-2,56.1,9.8c0.2,0,0.4,0.1,0.5,0.2
		c29.3,15.8,54.3,39.6,75.1,71.5c19.9,30.5,30.1,59.7,30.6,87.7v139c23.1,24.4,45,22.5,65.8-5.5v-139c0.5-38.9-12.9-79.4-40.4-121.5
		C453.7-1367.2,421.8-1397.5,384.2-1417.4z"/>
	<polygon class="st10" points="456.5,-657.1 456.5,-498.6 632.8,-604.7 668.7,-626.3 668.7,-786 632.8,-764.3 	"/>
	<polygon class="st11" points="156.2,-1030.8 156.2,-1116.6 18,-1197.4 18,-1030.8 18,-732.6 456.5,-498.3 456.5,-498.6 
		456.5,-657.1 156.2,-812.1 	"/>
	
		<text transform="matrix(0.795 -0.4824 -2.652317e-02 0.9996 472.5146 -759.5289)" class="st10" style="font-family:'JKAbode-Demo'; font-size:295.455px;">ix</text>
	
		<text transform="matrix(1.0674 0.6012 -1.001600e-02 0.9999 104.7556 -952.7328)" class="st11" style="font-family:'JKAbode-Demo'; font-size:261.5922px; letter-spacing:24.5;">lyt</text>
</g>
<g id="lytix_favicon">
	<g id="lytix_blue_3_1_">
		<path class="st12" d="M513.5,23.6c-0.2-0.1-0.4-0.2-0.6-0.4C468.3-0.6,430.1-4.2,398.3,12.6c-37.8,15.6-56.8,48.7-56.8,99.2v139
			c23.1,26,45.1,24.1,65.8-5.6v-139c0-16.4,4.8-27.8,14.3-34c15.2-5.3,33.9-2.1,56.1,9.8c0.2,0,0.4,0.1,0.5,0.2
			c29.3,15.8,54.3,39.7,75.1,71.5c19.9,30.5,30,59.7,30.5,87.7v138.9c23.1,24.4,45,22.5,65.8-5.5v-139c0.5-38.9-13-79.4-40.3-121.5
			C583,73.8,551,43.5,513.5,23.6z"/>
		<polygon class="st13" points="585.8,783.9 585.8,942.4 762,836.3 797.8,814.7 797.8,655 762,676.7 		"/>
		<polygon class="st14" points="285.4,410.2 285.4,324.4 147.2,243.6 147.2,410.2 147.2,708.4 585.8,942.7 585.8,942.4 585.8,783.9 
			285.4,628.9 		"/>
	</g>
	<text transform="matrix(1 0 0 1 717.7617 217.893)" class="st15 st16 st17">favicon</text>
</g>
<g id="Layer_3" class="st0">
	<g id="lytix_blue_3_2_" class="st18">
		<path class="st12" d="M504.5,2145c-0.2-0.1-0.4-0.2-0.6-0.4c-44.6-23.8-82.8-27.4-114.6-10.6c-37.8,15.6-56.8,48.7-56.8,99.2v139
			c23.1,26,45.1,24.1,65.8-5.6v-139c0-16.4,4.8-27.8,14.3-34c15.2-5.3,33.9-2.1,56.1,9.8c0.2,0,0.4,0.1,0.5,0.2
			c29.3,15.8,54.3,39.7,75.1,71.5c19.9,30.5,30,59.7,30.5,87.7v138.9c23.1,24.4,45,22.5,65.8-5.5v-139c0.5-38.9-13-79.4-40.3-121.5
			C574,2195.2,542,2164.9,504.5,2145z"/>
		<polygon class="st14" points="276.4,2531.6 276.4,2445.8 138.2,2365 138.2,2531.6 138.2,2829.8 576.8,3064.1 576.8,3063.8 
			576.8,2905.3 276.4,2750.3 		"/>
	</g>
	<text transform="matrix(1 0 0 1 617.6704 2975.6692)" class="st2" style="font-family:'JKAbode-Demo'; font-size:785.4492px;">ytix</text>
</g>
</svg>
