<?xml version="1.0" encoding="utf-8"?>
<!-- Generator: Adobe Illustrator 23.0.1, SVG Export Plug-In . SVG Version: 6.00 Build 0)  -->
<svg version="1.1" id="Layer_1" xmlns="http://www.w3.org/2000/svg" xmlns:xlink="http://www.w3.org/1999/xlink" x="0px" y="0px"
	 viewBox="0 0 1692.4 1063.7" style="enable-background:new 0 0 1692.4 1063.7;" xml:space="preserve">
<style type="text/css">
	.st0{display:none;}
	.st1{display:inline;fill:#072F6A;}
	.st2{display:inline;fill:#0B3D87;}
	.st3{display:inline;fill:#1351AC;}
	.st4{display:inline;fill:#3568B3;}
	.st5{display:inline;fill:#5883C3;}
	.st6{display:inline;fill:#153862;}
	.st7{display:inline;fill:#42648D;}
	.st8{display:inline;fill:#274C79;}
	.st9{display:inline;fill:#204A6F;}
	.st10{display:inline;fill:#2779C3;}
	.st11{display:inline;fill:#226098;}
	.st12{display:inline;}
	.st13{fill:#072F6A;}
	.st14{fill:#0B3D87;}
	.st15{fill:#1351AC;}
	.st16{font-family:'JKAbode-Demo';}
	.st17{font-size:785.4492px;}
</style>
<g id="lytix_blue_3" class="st0">
	<path class="st1" d="M1105.5-3486.4c-0.2-0.1-0.4-0.2-0.6-0.4c-44.6-23.8-82.8-27.4-114.6-10.6c-37.8,15.6-56.8,48.7-56.8,99.2v139
		c23.1,26,45.1,24.1,65.8-5.6v-139c0-16.4,4.8-27.8,14.3-34c15.2-5.3,33.9-2.1,56.1,9.8c0.2,0,0.4,0.1,0.5,0.2
		c29.3,15.8,54.3,39.7,75.1,71.5c19.9,30.5,30,59.7,30.5,87.7v138.9c23.1,24.4,45,22.5,65.8-5.5v-139c0.5-38.9-13-79.4-40.3-121.5
		C1175-3436.2,1143-3466.5,1105.5-3486.4z"/>
	<polygon class="st2" points="1177.8,-2726.1 1177.8,-2567.6 1354.1,-2673.7 1389.9,-2695.3 1389.9,-2855 1354.1,-2833.3 	"/>
	<polygon class="st3" points="877.4,-3099.8 877.4,-3185.6 739.2,-3266.4 739.2,-3099.8 739.2,-2801.6 1177.8,-2567.3 
		1177.8,-2567.6 1177.8,-2726.1 877.4,-2881.1 	"/>
	
		<text transform="matrix(0.795 -0.4824 -2.652317e-02 0.9996 1196.8241 -2801.5337)" class="st2 st16" style="font-size:295.455px;">ix</text>
	
		<text transform="matrix(1.0674 0.6012 -1.001600e-02 0.9999 899.6898 -2954.1545)" class="st3 st16" style="font-size:261.5922px; letter-spacing:24.5;">yt</text>
</g>
<g id="lytic_colored_3" class="st0">
	<path class="st3" d="M1884.4-3499.8c-0.2-0.1-0.4-0.2-0.6-0.4c-44.6-23.8-82.8-27.4-114.7-10.6c-37.8,15.6-56.8,48.7-56.8,99.2v139
		c23.1,26,45.1,24.1,65.8-5.6v-139c0-16.4,4.8-27.8,14.3-34c15.2-5.3,33.9-2.1,56.1,9.8c0.2,0,0.4,0.1,0.5,0.2
		c29.3,15.8,54.3,39.7,75.1,71.5c19.9,30.5,30.1,59.7,30.6,87.7v139c23.1,24.4,45,22.5,65.8-5.5v-139c0.5-38.9-12.9-79.4-40.4-121.5
		C1953.8-3449.6,1921.8-3479.9,1884.4-3499.8z"/>
	<polygon class="st4" points="1956.7,-2739.5 1956.7,-2581 2133,-2687.1 2168.8,-2708.7 2168.8,-2868.4 2133,-2846.7 	"/>
	<polygon class="st5" points="1656.3,-3113.2 1656.3,-3199 1518,-3279.8 1518,-3113.2 1518,-2815 1956.7,-2580.7 1956.7,-2581 
		1956.7,-2739.5 1656.3,-2894.5 	"/>
	
		<text transform="matrix(0.795 -0.4824 -2.652317e-02 0.9996 1975.6382 -2814.8845)" class="st4 st16" style="font-size:295.455px;">ix</text>
	
		<text transform="matrix(1.0674 0.6012 -1.001600e-02 0.9999 1678.5043 -2967.5042)" class="st5 st16" style="font-size:261.5922px; letter-spacing:24.5;">yt</text>
</g>
<g id="lytix_colored_4" class="st0">
	<path class="st6" d="M2707.6-3499.8c-0.2-0.1-0.4-0.2-0.6-0.4c-44.6-23.8-82.8-27.4-114.7-10.6c-37.8,15.6-56.8,48.7-56.8,99.2v139
		c23.1,26,45.1,24.1,65.8-5.6v-139c0-16.4,4.8-27.8,14.3-34c15.2-5.3,33.9-2.1,56.1,9.8c0.2,0,0.4,0.1,0.5,0.2
		c29.3,15.8,54.3,39.7,75.1,71.5c19.9,30.5,30.1,59.7,30.6,87.7v138.9c23.1,24.4,45,22.5,65.8-5.5v-139
		c0.5-38.9-12.9-79.4-40.4-121.5C2777-3449.6,2745.1-3479.9,2707.6-3499.8z"/>
	<polygon class="st7" points="2779.9,-2739.6 2779.9,-2581 2956.2,-2687.2 2992,-2708.7 2992,-2868.4 2956.2,-2846.7 	"/>
	<polygon class="st8" points="2479.5,-3113.2 2479.5,-3199 2341.3,-3279.9 2341.3,-3113.2 2341.3,-2815 2779.9,-2580.7 
		2779.9,-2581 2779.9,-2739.6 2479.5,-2894.5 	"/>
	
		<text transform="matrix(0.795 -0.4824 -2.652317e-02 0.9996 2798.8096 -2814.9043)" class="st7 st16" style="font-size:295.455px;">ix</text>
	
		<text transform="matrix(1.0674 0.6012 -1.001600e-02 0.9999 2501.677 -2967.5261)" class="st8 st16" style="font-size:261.5922px; letter-spacing:24.5;">yt</text>
</g>
<g id="lytix_colored_5" class="st0">
	<path class="st9" d="M246-3541c-0.2-0.1-0.4-0.2-0.6-0.4c-44.6-23.8-82.8-27.4-114.7-10.6c-37.8,15.6-56.8,48.7-56.8,99.2v139
		c23.1,26,45.1,24.1,65.8-5.6v-139c0-16.4,4.8-27.8,14.3-34.1c15.2-5.3,33.9-2,56.1,9.8c0.2,0,0.4,0.1,0.5,0.2
		c29.3,15.8,54.3,39.6,75.1,71.5c19.9,30.5,30.1,59.7,30.6,87.7v139c23.1,24.4,45,22.5,65.8-5.5v-139c0.5-38.9-12.9-79.4-40.4-121.5
		C315.4-3490.8,283.5-3521.1,246-3541z"/>
	<polygon class="st10" points="318.3,-2780.7 318.3,-2622.2 494.6,-2728.3 530.4,-2749.9 530.4,-2909.6 494.6,-2887.9 	"/>
	<polygon class="st11" points="17.9,-3154.4 17.9,-3240.2 -120.3,-3321 -120.3,-3154.4 -120.3,-2856.2 318.3,-2621.9 318.3,-2622.2 
		318.3,-2780.7 17.9,-2935.7 	"/>
	
		<text transform="matrix(0.795 -0.4824 -2.652317e-02 0.9996 334.2713 -2883.1653)" class="st10 st16" style="font-size:295.455px;">ix</text>
	
		<text transform="matrix(1.0674 0.6012 -1.001600e-02 0.9999 -33.4877 -3076.3694)" class="st11 st16" style="font-size:261.5922px; letter-spacing:24.5;">lyt</text>
</g>
<g id="lytix_favicon" class="st0">
	<g id="lytix_blue_3_1_" class="st12">
		<path class="st13" d="M375.2-2100c-0.2-0.1-0.4-0.2-0.6-0.4c-44.6-23.8-82.8-27.4-114.6-10.6c-37.8,15.6-56.8,48.7-56.8,99.2v139
			c23.1,26,45.1,24.1,65.8-5.6v-139c0-16.4,4.8-27.8,14.3-34c15.2-5.3,33.9-2.1,56.1,9.8c0.2,0,0.4,0.1,0.5,0.2
			c29.3,15.8,54.3,39.7,75.1,71.5c19.9,30.5,30,59.7,30.5,87.7v138.9c23.1,24.4,45,22.5,65.8-5.5v-139c0.5-38.9-13-79.4-40.3-121.5
			C444.7-2049.8,412.7-2080.1,375.2-2100z"/>
		<polygon class="st14" points="447.5,-1339.7 447.5,-1181.2 623.8,-1287.3 659.6,-1308.9 659.6,-1468.6 623.8,-1446.9 		"/>
		<polygon class="st15" points="147.1,-1713.4 147.1,-1799.2 8.9,-1880 8.9,-1713.4 8.9,-1415.2 447.5,-1180.9 447.5,-1181.2 
			447.5,-1339.7 147.1,-1494.7 		"/>
	</g>
	
		<text transform="matrix(1 0 0 1 579.5184 -1905.7434)" class="st12" style="font-family:'MyriadPro-Regular'; font-size:290.2633px;">favicon</text>
</g>
<g id="Layer_3">
	<g id="lytix_blue_3_2_">
		<path class="st13" d="M366.3,21.4c-0.2-0.1-0.4-0.2-0.6-0.4C321.1-2.8,282.9-6.4,251.1,10.4c-37.8,15.6-56.8,48.7-56.8,99.2v139
			c23.1,26,45.1,24.1,65.8-5.6V104c0-16.4,4.8-27.8,14.3-34c15.2-5.3,33.9-2.1,56.1,9.8c0.2,0,0.4,0.1,0.5,0.2
			c29.3,15.8,54.3,39.7,75.1,71.5c19.9,30.5,30,59.7,30.5,87.7v138.9c23.1,24.4,45,22.5,65.8-5.5v-139c0.5-38.9-13-79.4-40.3-121.5
			C435.8,71.6,403.8,41.3,366.3,21.4z"/>
		<polygon class="st15" points="138.2,408 138.2,322.2 0,241.4 0,408 0,706.2 438.6,940.5 438.6,940.2 438.6,781.7 138.2,626.7 		
			"/>
	</g>
	<text transform="matrix(1 0 0 1 479.4271 852.0327)" class="st14 st16 st17">ytix</text>
</g>
</svg>
